<?xml version="1.0" encoding="UTF-8"?>
<svg xmlns="http://www.w3.org/2000/svg" xmlns:xlink="http://www.w3.org/1999/xlink" width="30px" height="30px" viewBox="0 0 30 30" version="1.1">
<defs>
<linearGradient id="linear0" gradientUnits="userSpaceOnUse" x1="37.65" y1="38" x2="37.65" y2="9.02" gradientTransform="matrix(0.46875,0,0,0.46875,0,0)">
<stop offset="0" style="stop-color:rgb(83.137255%,84.705882%,88.235294%);stop-opacity:1;"/>
<stop offset="1" style="stop-color:rgb(95.294118%,95.686275%,96.078431%);stop-opacity:1;"/>
</linearGradient>
<linearGradient id="linear1" gradientUnits="userSpaceOnUse" x1="12.3" y1="13.01" x2="63" y2="13.01" gradientTransform="matrix(0.46875,0,0,0.46875,0,0)">
<stop offset="0" style="stop-color:rgb(27.843137%,30.980392%,44.705882%);stop-opacity:1;"/>
<stop offset="1" style="stop-color:rgb(52.941176%,54.901961%,62.352941%);stop-opacity:1;"/>
</linearGradient>
<linearGradient id="linear2" gradientUnits="userSpaceOnUse" x1="1" y1="3" x2="12.65" y2="3" gradientTransform="matrix(0.46875,0,0,0.46875,0,0)">
<stop offset="0" style="stop-color:rgb(62.745098%,65.098039%,72.941176%);stop-opacity:1;"/>
<stop offset="1" style="stop-color:rgb(77.647059%,80%,85.490196%);stop-opacity:1;"/>
</linearGradient>
</defs>
<g id="surface1">
<path style=" stroke:none;fill-rule:nonzero;fill:url(#linear0);" d="M 29.53125 6.09375 L 29.53125 15.9375 L 26.25 16.222656 L 25.316406 16.304688 L 22.5 16.546875 L 21.566406 16.632812 L 18.75 16.875 L 17.816406 16.953125 L 15 17.203125 L 14.066406 17.28125 L 11.25 17.527344 L 10.316406 17.605469 L 7.96875 17.8125 L 7.894531 17.347656 L 7.433594 14.53125 L 7.285156 13.601562 L 6.753906 10.3125 L 6.605469 9.402344 L 6.148438 6.605469 L 6 5.667969 L 5.765625 4.226562 Z M 29.53125 6.09375 "/>
<path style=" stroke:none;fill-rule:nonzero;fill:rgb(78.039216%,80.392157%,84.705882%);fill-opacity:1;" d="M 29.53125 14.53125 L 29.53125 15.9375 L 7.96875 17.8125 L 7.96875 16.40625 Z M 29.53125 14.53125 "/>
<path style=" stroke:none;fill-rule:nonzero;fill:url(#linear1);" d="M 29.53125 6.09375 L 29.53125 7.96875 L 23.265625 7.476562 L 12.210938 6.609375 L 10.78125 6.496094 L 6.074219 6.125 L 5.765625 4.226562 L 12.351562 4.742188 L 23.414062 5.617188 Z M 29.53125 6.09375 "/>
<path style=" stroke:none;fill-rule:nonzero;fill:rgb(25.882353%,27.058824%,36.862745%);fill-opacity:1;" d="M 27.65625 26.71875 C 27.65625 28.011719 26.605469 29.0625 25.3125 29.0625 C 24.019531 29.0625 22.96875 28.011719 22.96875 26.71875 C 22.96875 25.425781 24.019531 24.375 25.3125 24.375 C 26.605469 24.375 27.65625 25.425781 27.65625 26.71875 Z M 27.65625 26.71875 "/>
<path style=" stroke:none;fill-rule:nonzero;fill:rgb(25.882353%,27.058824%,36.862745%);fill-opacity:1;" d="M 10.3125 26.71875 C 10.3125 28.011719 9.261719 29.0625 7.96875 29.0625 C 6.675781 29.0625 5.625 28.011719 5.625 26.71875 C 5.625 25.425781 6.675781 24.375 7.96875 24.375 C 9.261719 24.375 10.3125 25.425781 10.3125 26.71875 Z M 10.3125 26.71875 "/>
<path style=" stroke:none;fill-rule:nonzero;fill:url(#linear2);" d="M 5.929688 2.34375 L 1.40625 2.34375 C 1.15625 2.34375 0.921875 2.242188 0.746094 2.066406 C 0.570312 1.890625 0.46875 1.65625 0.46875 1.40625 C 0.46875 0.886719 0.886719 0.46875 1.40625 0.46875 L 5.625 0.46875 Z M 5.929688 2.34375 "/>
<path style=" stroke:none;fill-rule:nonzero;fill:rgb(0%,0%,0%);fill-opacity:1;" d="M 8.90625 27.1875 C 8.90625 27.707031 8.488281 28.125 7.96875 28.125 C 7.449219 28.125 7.03125 27.707031 7.03125 27.1875 C 7.03125 26.667969 7.449219 26.25 7.96875 26.25 C 8.488281 26.25 8.90625 26.667969 8.90625 27.1875 Z M 8.90625 27.1875 "/>
<path style=" stroke:none;fill-rule:nonzero;fill:rgb(0%,0%,0%);fill-opacity:1;" d="M 26.25 27.1875 C 26.25 27.707031 25.832031 28.125 25.3125 28.125 C 24.792969 28.125 24.375 27.707031 24.375 27.1875 C 24.375 26.667969 24.792969 26.25 25.3125 26.25 C 25.832031 26.25 26.25 26.667969 26.25 27.1875 Z M 26.25 27.1875 "/>
<path style=" stroke:none;fill-rule:nonzero;fill:rgb(0%,0%,0%);fill-opacity:1;" d="M 29.570312 5.625 L 6.167969 3.789062 C 5.59375 0.230469 5.691406 0 5.15625 0 L 1.40625 0 C 0.839844 0 0.328125 0.339844 0.109375 0.863281 C -0.109375 1.390625 0.0078125 1.992188 0.40625 2.394531 C 0.9375 2.914062 1.074219 2.8125 5.0625 2.8125 L 7.46875 17.652344 L 4.65625 20.488281 C 4.082031 21.03125 4.21875 21.445312 4.21875 23.90625 C 4.21875 24.683594 4.847656 25.3125 5.625 25.3125 L 5.878906 25.3125 C 4.863281 26.4375 4.925781 28.164062 6.015625 29.21875 C 7.105469 30.269531 8.832031 30.269531 9.921875 29.21875 C 11.011719 28.164062 11.074219 26.4375 10.058594 25.3125 L 23.222656 25.3125 C 22.335938 26.300781 22.265625 27.777344 23.046875 28.847656 C 23.832031 29.917969 25.257812 30.296875 26.46875 29.753906 C 27.679688 29.210938 28.347656 27.894531 28.066406 26.597656 C 27.789062 25.296875 26.640625 24.371094 25.3125 24.375 L 5.625 24.375 C 5.367188 24.375 5.15625 24.164062 5.15625 23.90625 L 5.15625 21.484375 C 5.15625 21.210938 5.078125 21.371094 8.179688 18.261719 L 29.574219 16.386719 C 29.808594 16.367188 29.992188 16.171875 30 15.9375 L 30 6.09375 C 30 5.847656 29.8125 5.644531 29.570312 5.625 Z M 1.40625 1.875 C 1.148438 1.875 0.9375 1.664062 0.9375 1.40625 C 0.9375 1.148438 1.148438 0.9375 1.40625 0.9375 L 4.757812 0.9375 L 4.90625 1.875 Z M 9.84375 27.1875 C 9.84375 28.222656 9.003906 29.0625 7.96875 29.0625 C 6.933594 29.0625 6.09375 28.222656 6.09375 27.1875 C 6.09375 26.152344 6.933594 25.3125 7.96875 25.3125 C 9.003906 25.3125 9.84375 26.152344 9.84375 27.1875 Z M 27.1875 27.1875 C 27.1875 28.222656 26.347656 29.0625 25.3125 29.0625 C 24.277344 29.0625 23.4375 28.222656 23.4375 27.1875 C 23.4375 26.152344 24.277344 25.3125 25.3125 25.3125 C 26.347656 25.3125 27.1875 26.152344 27.1875 27.1875 Z M 7.914062 14.53125 C 8.601562 14.53125 9.414062 14.503906 10.3125 14.46875 L 10.3125 17.140625 L 8.363281 17.3125 Z M 29.0625 9.84375 L 26.25 9.789062 L 26.25 8.179688 L 29.0625 8.398438 Z M 25.3125 9.765625 L 22.5 9.707031 L 22.5 7.890625 L 25.3125 8.109375 Z M 21.5625 9.6875 L 18.75 9.632812 L 18.75 7.59375 L 21.5625 7.8125 Z M 15 10.480469 L 17.8125 10.542969 L 17.8125 13.171875 L 15 13.316406 Z M 14.0625 13.363281 L 11.25 13.492188 L 11.25 10.40625 L 14.0625 10.460938 Z M 18.75 10.550781 L 21.5625 10.609375 L 21.5625 12.953125 L 18.75 13.125 Z M 17.8125 9.613281 L 15 9.554688 L 15 7.296875 L 17.8125 7.5 Z M 14.0625 9.535156 L 11.25 9.476562 L 11.25 7.003906 L 14.0625 7.222656 Z M 10.3125 9.460938 L 7.078125 9.375 L 6.632812 6.636719 L 10.3125 6.921875 Z M 10.3125 10.398438 L 10.3125 13.539062 C 9.34375 13.570312 8.480469 13.59375 7.757812 13.601562 L 7.226562 10.320312 Z M 11.25 14.4375 L 14.0625 14.3125 L 14.0625 16.824219 L 11.25 17.066406 Z M 15 14.265625 L 17.8125 14.117188 L 17.8125 16.496094 L 15 16.738281 Z M 18.75 14.0625 L 21.5625 13.917969 L 21.5625 16.164062 L 18.75 16.40625 Z M 22.5 13.867188 L 25.3125 13.730469 L 25.3125 15.839844 L 22.5 16.082031 Z M 22.5 12.929688 L 22.5 10.636719 L 25.3125 10.695312 L 25.3125 12.789062 C 24.4375 12.824219 23.488281 12.871094 22.5 12.921875 Z M 26.25 10.71875 L 29.0625 10.78125 L 29.0625 12.65625 C 28.308594 12.65625 27.347656 12.695312 26.25 12.742188 Z M 29.0625 6.53125 L 29.0625 7.46875 L 6.476562 5.6875 L 6.324219 4.75 Z M 26.25 15.75 L 26.25 13.683594 C 27.351562 13.640625 28.308594 13.609375 29.0625 13.597656 L 29.0625 15.507812 Z M 26.25 15.75 "/>
</g>
</svg>
